<?xml version="1.0" encoding="UTF-8" standalone="no"?>
<svg
   viewBox="0 0 200 200"
   version="1.1"
   id="svg6"
   sodipodi:docname="app_icon.svg"
   inkscape:version="1.4.2 (f4327f4, 2025-05-13)"
   xmlns:inkscape="http://www.inkscape.org/namespaces/inkscape"
   xmlns:sodipodi="http://sodipodi.sourceforge.net/DTD/sodipodi-0.dtd"
   xmlns="http://www.w3.org/2000/svg"
   xmlns:svg="http://www.w3.org/2000/svg">
  <sodipodi:namedview
     id="namedview6"
     pagecolor="#505050"
     bordercolor="#ffffff"
     borderopacity="1"
     inkscape:showpageshadow="0"
     inkscape:pageopacity="0"
     inkscape:pagecheckerboard="1"
     inkscape:deskcolor="#505050"
     inkscape:zoom="2.0175"
     inkscape:cx="-60.47088"
     inkscape:cy="142.99876"
     inkscape:window-width="1920"
     inkscape:window-height="1009"
     inkscape:window-x="1912"
     inkscape:window-y="580"
     inkscape:window-maximized="1"
     inkscape:current-layer="svg6" />
  <rect
     x="4.5454526"
     y="4.5454526"
     width="190.90909"
     height="190.90909"
     rx="45.454548"
     fill="#3b1c75"
     stroke="#a855f7"
     stroke-width="9.09091"
     id="rect2" />
  <g
     stroke="#f5e9ff"
     stroke-width="4"
     stroke-linecap="round"
     stroke-linejoin="round"
     fill="none"
     id="g2"
     style="display:inline"
     transform="matrix(2.2727276,0,0,2.2727276,-127.27274,-127.27275)">
    <line
       x1="100"
       y1="66"
       x2="100"
       y2="92"
       id="line2" />
    <path
       d="m 90,86 10,10 10,-10"
       id="path2" />
  </g>
  <path
     d="m 72,84 16,34 12,-16 9.4677,13.32746"
     fill="none"
     stroke="#f9f5ff"
     stroke-width="5"
     stroke-linecap="round"
     stroke-linejoin="round"
     id="path3"
     sodipodi:nodetypes="cccc"
     style="display:inline"
     clip-path="url(#clipPath7)"
     inkscape:path-effect="#path-effect7"
     transform="matrix(2.2727276,0,0,2.2727276,-127.27274,-127.27275)" />
  <path
     d="m 172.92286,102.71666 a 30.761399,30.761399 0 1 0 0,30.76138"
     fill="none"
     stroke="#f9f5ff"
     stroke-width="9.61293"
     stroke-linecap="round"
     stroke-linejoin="round"
     id="path4"
     style="display:inline" />
  <rect
     x="27.272722"
     y="163.63637"
     width="145.45456"
     height="18.18182"
     rx="9.09091"
     fill="#261049"
     id="rect4"
     style="display:inline;stroke-width:2.27275" />
  <rect
     x="27.272722"
     y="163.63637"
     width="81.818192"
     height="18.18182"
     rx="9.09091"
     fill="#a855f7"
     id="rect5"
     style="display:inline;stroke-width:2.27275" />
  <defs
     id="defs6">
    <inkscape:path-effect
       effect="powerclip"
       message=""
       id="path-effect7"
       is_visible="true"
       lpeversion="1"
       inverse="true"
       flatten="false"
       hide_clip="false" />
    <radialGradient
       id="innerGlow"
       cx="100"
       cy="82.000001"
       r="78.000003"
       fx="100"
       fy="82.000001"
       gradientUnits="userSpaceOnUse"
       gradientTransform="matrix(1.1111112,0,0,1.1111112,-11.111111,-11.111111)">
      <stop
         offset="0%"
         stop-color="#a855f7"
         stop-opacity="0.38"
         id="stop5" />
      <stop
         offset="100%"
         stop-color="#a855f7"
         stop-opacity="0"
         id="stop6" />
    </radialGradient>
    <clipPath
       clipPathUnits="userSpaceOnUse"
       id="clipPath7">
      <rect
         style="display:none;fill:#000000"
         id="rect7"
         width="14.25031"
         height="18.463446"
         x="107.37299"
         y="99.19455"
         rx="20"
         d="m 114.49815,99.19455 c 3.94733,0 7.12515,4.11735 7.12515,9.23172 0,5.11438 -3.17782,9.23173 -7.12515,9.23173 -3.94734,0 -7.12516,-4.11735 -7.12516,-9.23173 0,-5.11437 3.17782,-9.23172 7.12516,-9.23172 z" />
      <path
         id="lpe_path-effect7"
         style="fill:#000000"
         class="powerclip"
         d="m 64.5,76.5 h 52.4677 v 48.99977 H 64.5 Z m 49.99815,22.69455 c -3.94734,0 -7.12516,4.11735 -7.12516,9.23172 0,5.11438 3.17782,9.23173 7.12516,9.23173 3.94733,0 7.12515,-4.11735 7.12515,-9.23173 0,-5.11437 -3.17782,-9.23172 -7.12515,-9.23172 z" />
    </clipPath>
  </defs>
</svg>
